<svg xmlns="http://www.w3.org/2000/svg" viewBox="0 0 48 48" fill="none">
    <defs>
        <clipPath id="top-left-clip">
            <path d="M8 0 L40 0 Q48 0 48 8 L48 40 L8 0 Z"/>
        </clipPath>
        <clipPath id="bottom-right-clip">
            <path d="M0 8 L0 40 Q0 48 8 48 L40 48 L0 8 Z"/>
        </clipPath>
    </defs>
    
    <!-- Background with rounded corners -->
    <rect width="48" height="48" rx="8" ry="8" fill="#E8EDF4"/>
    
    <!-- W2G half (top-left) -->
    <g clip-path="url(#top-left-clip)">
        <rect width="48" height="48" rx="8" ry="8" fill="#FDBD00"/>
        <!-- YouTube play button (top-right) -->
        <path d="M40 12L32 7L32 17L40 12Z" fill="white" opacity="0.9"/>
    </g>
  
    
    <!-- YouTube half (bottom-right) -->
    <g clip-path="url(#bottom-right-clip)">
        <rect width="48" height="48" rx="8" ry="8" fill="#FF0033"/>
        <!-- YouTube play button -->
        <path d="M18 36L10 31L10 41L18 36Z" fill="white" opacity="0.9"/>
    </g>
    
    <!-- Sync arrow in the middle -->
    <g transform="translate(24, 24)">
        <!-- Circle background for arrow -->
        <circle cx="0" cy="0" r="8" fill="white" opacity="0.95"/>
        <!-- Sync arrows -->
        <path d="M2.5 -3.5A4 4 0 0 1 -2.5 -3.5L-2.5 -2L-5 -4L-2.5 -6L-2.5 -4.5A5 5 0 0 1 3.5 -2.5" 
              fill="none" stroke="#333" stroke-width="1.2" stroke-linecap="round" stroke-linejoin="round"/>
        <path d="M-2.5 3.5A4 4 0 0 1 2.5 3.5L2.5 2L5 4L2.5 6L2.5 4.5A5 5 0 0 1 -3.5 2.5" 
              fill="none" stroke="#333" stroke-width="1.2" stroke-linecap="round" stroke-linejoin="round"/>
    </g>
</svg>